<?xml version="1.0" standalone="no"?><!DOCTYPE svg PUBLIC "-//W3C//DTD SVG 1.1//EN" "http://www.w3.org/Graphics/SVG/1.1/DTD/svg11.dtd"><svg t="1772130831846" class="icon" viewBox="0 0 1024 1024" version="1.1" xmlns="http://www.w3.org/2000/svg" p-id="1673" xmlns:xlink="http://www.w3.org/1999/xlink" width="200" height="200"><path d="M126.779592 1024H292.575351L508.246364 276.681805l216.908296 747.27553h164.558477l-291.699846-1023.957335h-172.024832z" fill="#093099" p-id="1674"></path><path d="M350.812924 824.370985l-31.145369 107.963501c144.569976-6.101079 278.687055-107.323528 278.687055-107.323528l-94.204075-75.410191s-76.604808 67.389192-153.337611 74.770218z" fill="#718089" p-id="1675"></path><path d="M904.347194 155.385526c-8.148994-13.140786-27.028207-3.477188-27.028208-3.477189l-61.501437 35.177201-141.391442-15.807341-0.234657 10.090246 70.610391 43.518187s-165.731761 97.233282-259.381192 156.452148c-94.460064 59.730845-162.126578 109.926086-213.964418 149.433773-85.159118 64.850631-140.559477 147.407191-151.460356 219.894838a142.543394 142.543394 0 0 0 46.760718 138.14891s41.918253-149.327111 58.600225-200.524978c20.095163-61.864089 109.115454-137.167618 194.125245-204.151493 103.163702-81.255281 348.678805-232.523645 348.678805-232.523645l0.597308 72.850298h11.156869l51.731178-103.654348 67.005208-39.507687a20.564476 20.564476 0 0 0 5.695763-25.91892z" fill="#718089" p-id="1676"></path></svg>